<?xml version="1.0" encoding="utf-8"?>
<!-- Generator: Adobe Illustrator 22.1.0, SVG Export Plug-In . SVG Version: 6.00 Build 0)  -->
<svg version="1.1" id="Layer_1" xmlns="http://www.w3.org/2000/svg" xmlns:xlink="http://www.w3.org/1999/xlink" x="0px" y="0px"
	 viewBox="0 0 69.9 68.4" style="enable-background:new 0 0 69.9 68.4;" xml:space="preserve">
<g id="BG">
</g>
<g id="Layer_10">
</g>
<g id="Paint_splats">
	<g id="Layer_9">
	</g>
</g>
<g id="Layer_8">
</g>
<g id="Layer_3">
</g>
<g id="Layer_1_1_">
</g>
<g id="Layer_12">
</g>
<g id="hover_effect" style="display:none;">
</g>
<g id="open_eye">
</g>
<g id="Layer_11">
	<circle style="fill:#00AEEF;" cx="34.8" cy="11.5" r="11.3"/>
	<g>
		<g>
			<path style="fill:#242020;" d="M35.1,0.2C28.5,0.2,23,5.6,23,12.3s5.4,12.1,12.1,12.1S47.2,19,47.2,12.3
				C47.2,5.6,41.8,0.2,35.1,0.2z M35.1,22.1c-5.4,0-9.8-4.4-9.8-9.8s4.4-9.8,9.8-9.8s9.8,4.4,9.8,9.8C45,17.7,40.6,22.1,35.1,22.1z"
				/>
			<path style="fill:#242020;" d="M35.2,3.8c-2.7,0-4.8,2.2-4.8,4.8c0,2.7,2.2,4.8,4.8,4.8S40,11.2,40,8.6
				C40.1,5.9,37.9,3.8,35.2,3.8z M35.2,11.1c-1.4,0-2.5-1.1-2.5-2.5s1.1-2.5,2.5-2.5s2.5,1.1,2.5,2.5S36.6,11.1,35.2,11.1z"/>
			<path style="fill:#242020;" d="M36.4,12.6H34c-2.7,0-4.8,2.2-4.8,4.8v1.4c0,2.7,2.2,4.8,4.8,4.8h2.4c2.7,0,4.8-2.2,4.8-4.8v-1.4
				C41.3,14.8,39.1,12.6,36.4,12.6z M38.7,21.2c0,0-0.8,0.7-3.5,0.7s-3.2-0.4-3.7-0.6v-3.9c0,0,0.4-2.7,3.5-2.7s3.6,2.7,3.6,2.7v3.8
				H38.7z"/>
		</g>
		<path style="fill:#242020;" d="M69.9,36.8v-9H54.1v3.4H42l-5.9-3v-3.4h-2.3v3.4l-8.2,4.1l8.2,4.1v3.8H9v-3.4h6.8v-9H0v9h6.8v3.4
			v1.1v4.5H0v9h15.8v-9H9v-3.4h24.8v3.4H27v9h6.8v4.5h-2.3c-2.5,0-4.5,2-4.5,4.5s2,4.5,4.5,4.5h6.8c2.5,0,4.5-2,4.5-4.5
			s-2-4.5-4.5-4.5H36v-4.5h6.8v-9H36v-3.4v-2.3v-3.8l5.9-3H54v3.4h6.8V46c-1.9,0.5-3.4,2.3-3.4,4.3c0,2.5,2,4.5,4.5,4.5
			c2.5,0,4.5-2,4.5-4.5c0-2.1-1.4-3.8-3.4-4.3v-9.2H69.9z M13.5,48.1v4.5H2.3v-4.5H13.5z M2.3,34.6V30h11.3v4.5L2.3,34.6L2.3,34.6z
			 M38.3,61.6c1.2,0,2.3,1,2.3,2.3c0,1.2-1,2.3-2.3,2.3h-6.8c-1.2,0-2.3-1-2.3-2.3c0-1.2,1-2.3,2.3-2.3H38.3z M40.6,48.1v4.5H29.3
			v-4.5H40.6z M34.9,34.4l-4.2-2.1l4.2-2.1l4.2,2.1L34.9,34.4z M64.2,50.3c0,1.2-1,2.3-2.3,2.3c-1.2,0-2.3-1-2.3-2.3
			c0-1.2,1-2.3,2.3-2.3C63.2,48.1,64.2,49.1,64.2,50.3z M56.4,34.6V30h11.3v4.5L56.4,34.6L56.4,34.6z"/>
	</g>
	<rect x="2.3" y="30" style="display:none;fill:#FFFFFF;" width="11.3" height="4.5"/>
	<rect x="29.2" y="48.1" style="display:none;fill:#FFFFFF;" width="11.3" height="4.5"/>
	<circle style="display:none;fill:#ED1C24;" cx="62" cy="50.3" r="2.5"/>
	<path style="display:none;" d="M81.3,12.9c0,0-1.5,0-3.4,0c-2.2,0-1.9-1.8-1.9-1.8V8.5l2.3,1.9l1.4-1.6l-5.1-3.9l-4.8,3.8l1.5,1.6
		l2.4-2c0,0,0.2,2.6,0.2,4c0,2.9,2.8,2.8,2.8,2.8s0.8,0.1,4.2,0.1c3.5,0,3.9,4.1,3.9,4.1s0,5-0.1,7.9C84.6,30,81,30.6,81,30.6H69.9
		v2.2c3.6,0,8.1,0,10.9,0c5.3,0,6.2-5.3,6.2-5.3s0-4.4,0-8.7C86.9,13.5,81.3,12.9,81.3,12.9z"/>
</g>
<g id="Design">
</g>
</svg>
