<svg xmlns="http://www.w3.org/2000/svg" viewBox="0 0 69.88 67.19"><defs><style>.cls-1{fill:#3b3737;}.cls-2{fill:#fff;}.cls-3{fill:#e73435;}</style></defs><title>arch-start_1</title><g id="Layer_2" data-name="Layer 2"><g id="Design"><path class="cls-1" d="M35.13,0A12.09,12.09,0,1,0,47.22,12.09,12.08,12.08,0,0,0,35.13,0Zm0,21.91A9.82,9.82,0,1,1,45,12.09,9.82,9.82,0,0,1,35.13,21.91Z"/><path class="cls-1" d="M69.88,35.63v-9H54.1V30H42l-5.9-3V23.61H33.81V27l-8.15,4.08,8.15,4.08V39H9V35.63h6.76v-9H0v9H6.76v9H0v9H15.78v-9H9V41.27H33.81v3.38H27.05v9h6.76v4.51H31.56a4.51,4.51,0,0,0,0,9h6.76a4.51,4.51,0,0,0,0-9H36.07V53.66h6.76v-9H36.07V35.2l5.9-3H54.1v3.38h6.77v9.18a4.51,4.51,0,1,0,2.25,0V35.63ZM13.53,46.9v4.51H2.25V46.9ZM2.25,33.38V28.87H13.53v4.51ZM38.32,60.43a2.26,2.26,0,1,1,0,4.51H31.56a2.26,2.26,0,0,1,0-4.51ZM40.58,46.9v4.51H29.31V46.9ZM34.94,33.24,30.7,31.12,34.94,29l4.24,2.12ZM64.25,49.16A2.26,2.26,0,1,1,62,46.9,2.26,2.26,0,0,1,64.25,49.16ZM56.36,33.38V28.87H67.63v4.51Z"/><rect class="cls-2" x="2.25" y="28.87" width="11.27" height="4.51"/><rect class="cls-2" x="29.19" y="46.9" width="11.27" height="4.51"/><circle class="cls-3" cx="61.99" cy="49.16" r="2.41"/></g></g></svg>