<?xml version="1.0" encoding="utf-8"?>
<!-- Generator: Adobe Illustrator 22.1.0, SVG Export Plug-In . SVG Version: 6.00 Build 0)  -->
<svg version="1.1" id="Layer_1" xmlns="http://www.w3.org/2000/svg" xmlns:xlink="http://www.w3.org/1999/xlink" x="0px" y="0px"
	 viewBox="0 0 69.9 68.4" style="enable-background:new 0 0 69.9 68.4;" xml:space="preserve">
<title>architecture-5</title>
<circle style="fill:#00AEEF;" cx="34.8" cy="11.5" r="11.3"/>
<path style="fill:#231F20;" d="M35.1,0.2C28.5,0.2,23,5.6,23,12.3s5.4,12.1,12.1,12.1s12.1-5.4,12.1-12.1
	C47.2,5.6,41.8,0.2,35.1,0.2C35.1,0.2,35.1,0.2,35.1,0.2z M35.1,22.1c-5.4,0-9.8-4.4-9.8-9.9c0-5.4,4.4-9.8,9.9-9.8
	c5.4,0,9.8,4.4,9.8,9.8C45,17.7,40.6,22.1,35.1,22.1C35.2,22.1,35.1,22.1,35.1,22.1z"/>
<path style="fill:#231F20;" d="M35.2,3.8c-2.7,0-4.8,2.2-4.8,4.8c0,2.7,2.2,4.8,4.8,4.8c2.7,0,4.8-2.2,4.8-4.8c0,0,0,0,0,0
	C40.1,5.9,37.9,3.8,35.2,3.8L35.2,3.8z M35.2,11.1c-1.4,0-2.5-1.1-2.5-2.5s1.1-2.5,2.5-2.5s2.5,1.1,2.5,2.5S36.6,11.1,35.2,11.1z"/>
<path style="fill:#231F20;" d="M36.4,12.6H34c-2.7,0-4.8,2.2-4.9,4.8v1.4c0,2.7,2.2,4.8,4.9,4.9h2.4c2.7,0,4.8-2.2,4.8-4.9v-1.4
	C41.3,14.8,39.1,12.6,36.4,12.6z M38.7,21.2c0,0-0.8,0.7-3.5,0.7s-3.2-0.4-3.7-0.6v-3.9c0.3-1.7,1.8-2.8,3.5-2.7
	c1.7-0.1,3.2,1.1,3.6,2.7V21.2z"/>
<path style="fill:#231F20;" d="M69.9,36.8v-9H54.1v3.4H42l-5.9-3v-3.4h-2.3v3.4l-8.2,4.1l8.1,4.1v3.8H9v-3.4h6.8v-9H0v9h6.8v9H0v9
	h15.8v-9H9v-3.4h24.8v3.4H27v9h6.8v4.5h-2.2c-2.5-0.2-4.6,1.7-4.8,4.2c-0.2,2.5,1.7,4.6,4.2,4.8c0.2,0,0.4,0,0.6,0h6.8
	c2.5-0.2,4.4-2.3,4.2-4.8c-0.2-2.3-1.9-4-4.2-4.2h-2.2v-4.5h6.8v-9h-6.8v-9.5l5.9-3h12.1v3.4h6.8V46c-2.4,0.6-3.9,3.1-3.2,5.5
	c0.6,2.4,3.1,3.9,5.5,3.2s3.9-3.1,3.2-5.5c-0.4-1.6-1.7-2.8-3.2-3.2v-9.2H69.9z M13.5,48.1v4.5H2.2v-4.5H13.5z M2.2,34.6V30h11.3
	v4.5L2.2,34.6z M38.3,61.6c1.2-0.1,2.3,0.9,2.4,2.1c0.1,1.2-0.9,2.3-2.1,2.4c-0.1,0-0.2,0-0.3,0h-6.8c-1.2-0.1-2.2-1.2-2.1-2.4
	c0.1-1.1,1-2,2.1-2.1H38.3z M40.6,48.1v4.5H29.3v-4.5H40.6z M34.9,34.4l-4.2-2.1l4.2-2.1l4.2,2.1L34.9,34.4z M64.2,50.3
	c0,1.2-1,2.3-2.3,2.3c-1.2,0-2.3-1-2.3-2.3c0-1.2,1-2.3,2.3-2.3c0,0,0,0,0,0C63.2,48.1,64.3,49.1,64.2,50.3z M56.4,34.6V30h11.3v4.5
	L56.4,34.6z"/>
<rect x="2.2" y="30" style="fill:#FFFFFF;" width="11.3" height="4.5"/>
<rect x="29.2" y="48.1" style="fill:#FFFFFF;" width="11.3" height="4.5"/>
<circle style="fill:#ED1C24;" cx="62" cy="50.3" r="2.5"/>
<path style="fill:#231F20;" d="M89,12.9h-3.4c-2.2,0-1.9-1.8-1.9-1.8V8.5l2.3,1.9l1.4-1.6l-5.1-3.9l-4.8,3.8l1.5,1.6l2.4-2
	c0,0,0.2,2.6,0.2,4c-0.1,1.4,1,2.7,2.4,2.8c0.1,0,0.2,0,0.4,0c0,0,0.8,0.1,4.2,0.1s3.9,4.1,3.9,4.1s0,5-0.1,7.9s-3.7,3.4-3.7,3.4
	H77.5v2.2h10.9c5.3,0,6.2-5.3,6.2-5.3v-8.7C94.6,13.5,89,12.9,89,12.9z"/>
</svg>
