<svg xmlns="http://www.w3.org/2000/svg" viewBox="0 0 21.13 38.61"><defs><style>.cls-1{fill:#3b3737;}.cls-2{fill:none;stroke:#3b3737;stroke-miterlimit:10;stroke-width:2px;}</style></defs><title>arrow-up</title><g id="Layer_2" data-name="Layer 2"><g id="Design"><path class="cls-1" d="M15.54,18.77H12.15c-2.21,0-1.94-1.76-1.94-1.76V14.38l2.32,1.88L14,14.63,8.83,10.74,4,14.57,5.5,16.2l2.45-2s.19,2.56.19,4A2.61,2.61,0,0,0,11,20.91s.75.06,4.21.06,3.89,4.08,3.89,4.08,0,5-.13,7.91-3.76,3.45-3.76,3.45H4.09v2.2H15c5.33,0,6.15-5.34,6.15-5.34V24.55C21.13,19.4,15.54,18.77,15.54,18.77Z"/><rect class="cls-2" x="1" y="1" width="14.71" height="7.3"/></g></g></svg>