<svg xmlns="http://www.w3.org/2000/svg" viewBox="0 0 12.09 19.92"><defs><style>.cls-1{fill:#00a8b4;}</style></defs><title>user</title><g id="Layer_2" data-name="Layer 2"><g id="Design"><path class="cls-1" d="M6,0a4.83,4.83,0,1,0,4.83,4.82A4.82,4.82,0,0,0,6,0ZM6,7.32a2.5,2.5,0,1,1,2.5-2.5A2.5,2.5,0,0,1,6,7.32Z"/><path class="cls-1" d="M7.24,8.83H4.85A4.86,4.86,0,0,0,0,13.68v1.39a4.86,4.86,0,0,0,4.85,4.85H7.24a4.86,4.86,0,0,0,4.85-4.85V13.68A4.86,4.86,0,0,0,7.24,8.83ZM9.5,17.37s-.78.73-3.46.73-3.2-.35-3.67-.58V13.6a3.39,3.39,0,0,1,3.54-2.74A3.47,3.47,0,0,1,9.5,13.58Z"/></g></g></svg>
