<svg xmlns="http://www.w3.org/2000/svg" viewBox="0 0 71 80.02"><defs><style>.cls-1{fill:#3b3737;}.cls-2{fill:#00a8b4;}.cls-3{fill:#e73435;}</style></defs><title>design-start</title><g id="Design"><path class="cls-1" d="M68.31,4.35l-7.1,5.32L54.07,26.33H48.33l-2.25-4.89h1.47a4.89,4.89,0,0,0,4.89-4.88V11.68h2.44V4.35H47.55v7.33H50v4.88A2.44,2.44,0,0,1,47.55,19H45l-3.12-6.76,3.74-1.87L33.33,5.12,30.45,15.19a11,11,0,1,0-17.08,9.27v1.87h-3l-.19,1a27.34,27.34,0,0,0-.16,9.38L1.74,51.55,11,53.65V69h12.2V80H52.46V63A32.2,32.2,0,0,0,65.87,36.87V32.42a27.55,27.55,0,0,0-.47-5.09l-.18-1h-2.4l5.5-13.19ZM50,6.79h2.45V9.23H50Zm15.88,4.13-1.35-.68,1.35-1ZM45.64,26.33H41l-2.22-4.89h4.6Zm-9.53-4.89,2.22,4.89H32.9V23.88a2.45,2.45,0,0,1,2.44-2.44Zm-1.19-13,4.85,2.08-1.15.57L42.26,19H37.68l-3-6.54L33.62,13Zm-1.38,7.32L35,19a4.88,4.88,0,0,0-4.56,4.85v2.45H25.58V24.46a11,11,0,0,0,4.66-7Zm-18.34,7a8.55,8.55,0,1,1,8.54,0l-.6.35v3.25H20.69V18.78a3.66,3.66,0,1,0-2.44,0v7.55H15.81V23.08Zm3.05-7.39a1.22,1.22,0,1,1,1.22,1.22A1.22,1.22,0,0,1,18.25,15.34ZM63.42,32.42v4.45a29.73,29.73,0,0,1-12.88,24.5l-.53.36V77.58H25.6v-11H13.39V51.7L5.46,49.89l7.15-12.74-.08-.42a25,25,0,0,1-.08-8H63.16A26.46,26.46,0,0,1,63.42,32.42Zm-6.69-6.09,6.08-14.2,2.71,1.35L60.17,26.33Z"/><path class="cls-1" d="M21.91,36.09a3.67,3.67,0,0,1-3.66-3.66H15.81a6.11,6.11,0,0,0,12.21,0H25.58A3.67,3.67,0,0,1,21.91,36.09Z"/><rect class="cls-2" x="49.99" y="6.79" width="2.44" height="2.44"/><polygon class="cls-3" points="56.73 26.33 62.81 12.13 65.52 13.48 60.17 26.33 56.73 26.33"/></g></svg>
