<svg xmlns="http://www.w3.org/2000/svg" viewBox="0 0 71 80.02"><defs><style>.cls-1,.cls-5{fill:#e73435;}.cls-1,.cls-4{stroke:#3b3737;stroke-miterlimit:10;}.cls-1{stroke-width:3px;}.cls-2{fill:#00a8b4;}.cls-3{fill:#3b3737;}.cls-4{fill:none;stroke-width:2.42px;}</style></defs><title>design-active</title><g id="Design"><circle class="cls-1" cx="19.07" cy="14.58" r="9.65"/><rect class="cls-2" x="49.99" y="6.79" width="2.44" height="2.44"/><path class="cls-3" d="M68.31,4.35l-7.1,5.32L54.07,26.33H48.33l-2.25-4.89h1.47a4.89,4.89,0,0,0,4.89-4.88V11.68h2.44V4.35H47.55v7.33H50v4.88A2.44,2.44,0,0,1,47.55,19H45l-3.12-6.76,3.74-1.87L33.33,5.12,30.45,15.19a11,11,0,1,0-17.08,9.27v1.87h-3l-.19,1a27.34,27.34,0,0,0-.16,9.38L1.74,51.55,11,53.65V69h12.2V80H52.46V63A32.2,32.2,0,0,0,65.87,36.87V32.42a27.55,27.55,0,0,0-.47-5.09l-.18-1h-2.4l5.5-13.19ZM50,6.79h2.45V9.23H50ZM45.64,26.33H41l-2.22-4.89h4.6ZM34.92,8.46l4.85,2.08-1.15.57L42.26,19H37.68l-3-6.54L33.62,13Zm3.41,17.87H32.9V23.88a2.45,2.45,0,0,1,2.44-2.44h.77ZM33.54,15.78,35,19a4.88,4.88,0,0,0-4.56,4.85v2.45H25.58V24.46a11,11,0,0,0,4.66-7Zm-22.61-.44a8.55,8.55,0,1,1,12.81,7.39l-.6.35v3.25H20.69V18.78a3.66,3.66,0,1,0-2.44,0v7.55H15.81V23.08l-.61-.35A8.59,8.59,0,0,1,10.93,15.34Zm8.54,1.22a1.22,1.22,0,0,1,0-2.44,1.22,1.22,0,1,1,0,2.44ZM63.16,28.77a26.46,26.46,0,0,1,.26,3.65v4.45a29.73,29.73,0,0,1-12.88,24.5l-.53.36V77.58H25.6v-11H13.39V51.7L5.46,49.89l7.15-12.74-.08-.42a25,25,0,0,1-.08-8H63.16Zm-3-2.44H56.73l6.08-14.2,2.71,1.35Zm5.7-15.41-1.35-.68,1.35-1Z"/><circle class="cls-4" cx="21.43" cy="36.11" r="2.95"/><polygon class="cls-5" points="56.73 26.33 62.81 12.13 65.52 13.48 60.17 26.33 56.73 26.33"/></g></svg>
