<svg xmlns="http://www.w3.org/2000/svg" viewBox="0 0 31.15 20.2"><defs><style>.cls-1{fill:#3b3737;}</style></defs><title>eye</title><g id="Layer_12" data-name="Layer 12"><path class="cls-1" d="M15.73,20.12a18.61,18.61,0,0,0,15.35-8.4s-5.81-8.15-15.5-8.15S.08,11.72.08,11.72,5.36,20.12,15.73,20.12ZM15.55,5.81a16.86,16.86,0,0,1,12.83,6.06,17.1,17.1,0,0,1-12.83,6,16.9,16.9,0,0,1-12.77-6S7.73,5.81,15.55,5.81Z"/><path class="cls-1" d="M15.52,20.09a8.25,8.25,0,1,0-8.25-8.25A8.25,8.25,0,0,0,15.52,20.09Zm0-14.25a6,6,0,1,1-6,6A6,6,0,0,1,15.52,5.84Z"/><circle class="cls-1" cx="15.52" cy="11.84" r="1.84"/><path class="cls-1" d="M17.19,3.9V.83S17.12.07,16.12.07,15,.39,14.92.71s0,3,0,3Z"/><path class="cls-1" d="M22.68,5.67,24,2.87s.25-.71-.66-1.13-1.19-.19-1.36.09-1.23,2.7-1.23,2.7Z"/><path class="cls-1" d="M27.7,8.5l1.54-2.66s.32-.69-.54-1.19-1.16-.31-1.36-.05-1.49,2.57-1.49,2.57Z"/><path class="cls-1" d="M11.1,4.28,9.71,1.54a.93.93,0,0,0-1.29-.2c-.89.45-.89.81-.78,1.11S9,5.11,9,5.11Z"/><path class="cls-1" d="M6,6.78,4.36,4.19a.93.93,0,0,0-1.31-.07c-.84.54-.8.89-.66,1.18S4,7.81,4,7.81Z"/></g></svg>
